<svg width="26" height="27" viewBox="0 0 26 27" fill="none" xmlns="http://www.w3.org/2000/svg">
<circle cx="13" cy="13.5" r="13" fill="#FFDFDF"/>
<mask id="mask0_904_122" style="mask-type:alpha" maskUnits="userSpaceOnUse" x="5" y="6" width="16" height="16">
<rect x="5" y="6" width="16" height="16" fill="#D9D9D9"/>
</mask>
<g mask="url(#mask0_904_122)">
<path d="M12.9335 20.6666L15.9669 12.6666H17.3669L20.4002 20.6666H19.0002L18.2835 18.6333H15.0502L14.3335 20.6666H12.9335ZM7.66687 18.6666L6.73354 17.7333L10.1002 14.3666C9.71131 13.9777 9.35854 13.5333 9.04187 13.0333C8.7252 12.5333 8.43354 11.9666 8.16687 11.3333H9.56687C9.78909 11.7666 10.0113 12.1444 10.2335 12.4666C10.4558 12.7888 10.7224 13.111 11.0335 13.4333C11.4002 13.0666 11.7808 12.5527 12.1752 11.8916C12.5696 11.2305 12.8669 10.5999 13.0669 9.99992H5.66687V8.66659H10.3335V7.33325H11.6669V8.66659H16.3335V9.99992H14.4002C14.1669 10.7999 13.8169 11.6221 13.3502 12.4666C12.8835 13.311 12.4224 13.9555 11.9669 14.3999L13.5669 16.0333L13.0669 17.3999L11.0335 15.3166L7.66687 18.6666ZM15.4669 17.4666H17.8669L16.6669 14.0666L15.4669 17.4666Z" fill="#FF5E5E"/>
</g>
</svg>
